<?xml version="1.0" standalone="no"?>
<!DOCTYPE svg PUBLIC "-//W3C//DTD SVG 20010904//EN"
 "http://www.w3.org/TR/2001/REC-SVG-20010904/DTD/svg10.dtd">
<svg version="1.0" xmlns="http://www.w3.org/2000/svg"
 width="1000.000000pt" height="1000.000000pt" viewBox="0 0 1000.000000 1000.000000"
 preserveAspectRatio="xMidYMid meet">
<metadata>
Created by potrace 1.11, written by Peter Selinger 2001-2013
</metadata>
<g transform="translate(0.000000,1000.000000) scale(0.100000,-0.100000)"
fill="#000000" stroke="none">
<path d="M1404 7678 c24 -639 114 -1359 216 -1723 80 -283 252 -675 495 -1125
l73 -135 12 -174 c6 -96 14 -180 17 -188 4 -11 -42 -13 -260 -13 l-266 0 -20
-26 c-28 -36 -27 -79 4 -109 l24 -25 271 0 c208 0 271 -3 274 -12 2 -7 16 -67
31 -133 15 -66 47 -180 71 -253 24 -73 44 -135 44 -137 0 -3 -157 -5 -349 -5
l-350 0 -20 -26 c-28 -36 -27 -79 4 -109 l24 -25 384 0 383 0 12 -32 c6 -18
43 -90 81 -159 459 -841 1264 -1397 2180 -1504 162 -19 480 -19 642 0 339 39
640 132 955 294 286 147 469 283 719 535 236 238 406 472 542 747 l58 118 396
1 396 0 21 23 c30 32 29 87 -1 115 -23 22 -27 22 -383 22 l-361 0 39 112 c43
124 92 306 103 381 l7 47 287 0 288 0 21 23 c30 32 29 87 -1 115 -23 21 -30
22 -296 22 l-273 0 6 28 c12 58 27 313 25 432 l-2 125 98 195 c290 578 391
887 469 1435 53 373 106 998 106 1243 l0 85 -182 -7 c-326 -12 -848 -58 -1148
-102 -381 -55 -604 -111 -898 -226 l-153 -60 -87 37 c-199 86 -451 155 -697
192 -185 27 -591 25 -784 -5 -247 -39 -496 -111 -712 -207 l-101 -45 -96 42
c-391 166 -710 242 -1297 308 -304 34 -801 70 -963 70 l-85 0 7 -182z m486 37
c428 -29 858 -81 1155 -141 194 -39 430 -113 625 -196 l35 -15 -33 -19 c-78
-44 -273 -178 -352 -241 -116 -93 -316 -288 -412 -403 -150 -178 -301 -408
-387 -588 -19 -40 -37 -72 -41 -72 -9 0 -249 390 -362 590 -211 370 -588 1074
-588 1097 0 7 23 9 63 7 34 -2 168 -11 297 -19z m6580 13 c0 -12 -245 -478
-398 -758 -142 -260 -289 -516 -389 -677 l-95 -154 -55 98 c-131 232 -276 425
-462 617 -198 202 -430 383 -638 497 -35 19 -63 37 -63 40 0 7 222 87 340 123
327 99 833 165 1685 219 28 2 56 4 63 5 6 1 12 -3 12 -10z m-3205 -138 c560
-48 1085 -264 1510 -623 566 -477 921 -1143 1010 -1893 21 -173 21 -500 0
-679 -104 -898 -600 -1683 -1352 -2141 -583 -355 -1287 -469 -1958 -319 -465
105 -908 344 -1268 685 -215 203 -437 501 -567 761 l-40 79 97 0 c102 1 120 7
141 47 17 32 15 49 -12 80 -24 28 -26 28 -162 33 l-138 5 -44 125 c-36 104
-112 376 -112 402 0 5 96 8 213 8 222 1 232 2 255 47 18 32 15 48 -14 82 l-26
31 -228 0 -227 0 -7 50 c-4 27 -11 121 -16 207 -36 591 125 1218 440 1719 205
326 512 644 820 849 502 334 1105 494 1685 445z"/>
<path d="M4192 4939 c-45 -13 -107 -80 -126 -136 -57 -167 52 -347 201 -330
174 19 243 290 106 419 -53 51 -113 66 -181 47z"/>
<path d="M6465 4932 c-83 -39 -129 -120 -129 -227 0 -182 165 -292 298 -198
61 43 91 110 91 203 0 64 -4 83 -29 127 -52 95 -148 134 -231 95z"/>
<path d="M5332 4460 c-277 -50 -405 -206 -275 -336 63 -63 224 -123 333 -124
79 -1 80 -2 80 -103 l0 -90 -39 -37 c-67 -64 -123 -85 -226 -85 -111 0 -156
19 -244 99 -33 31 -67 56 -74 56 -28 0 -57 -31 -57 -61 0 -42 74 -118 158
-162 157 -82 337 -72 478 28 27 19 52 35 56 35 4 0 28 -15 53 -34 134 -103
345 -112 493 -23 59 35 152 127 152 150 0 23 -40 67 -60 67 -11 0 -42 -22 -71
-50 -28 -27 -77 -62 -108 -77 -48 -24 -68 -28 -141 -28 -71 0 -94 4 -140 26
-30 14 -70 40 -88 57 l-33 31 3 97 3 97 92 23 c366 89 376 333 18 429 -71 19
-288 28 -363 15z m311 -126 c82 -19 152 -51 182 -84 l20 -22 -34 -29 c-57 -48
-215 -89 -336 -89 -127 1 -319 61 -344 108 -8 15 -6 23 12 40 82 78 328 115
500 76z"/>
</g>
</svg>
