<svg width="610" height="110" viewBox="0 0 610 110" fill="none" xmlns="http://www.w3.org/2000/svg">
<path d="M174.43 58.9775C174.43 62.2495 173.81 65.5726 172.57 68.9468C171.33 72.3211 169.435 75.4397 166.886 78.3027C164.337 81.1316 161.117 83.4151 157.224 85.1534C153.332 86.8916 148.751 87.7607 143.481 87.7607C136.419 87.7607 130.392 86.1077 125.397 82.8016C120.402 79.4615 116.579 74.8773 113.927 69.0491C111.309 63.1868 110 56.4383 110 48.8037C110 41.2031 111.309 34.4888 113.927 28.6605C116.579 22.7982 120.402 18.2311 125.397 14.9591C130.392 11.653 136.419 10 143.481 10C149.336 10 154.331 11.0566 158.464 13.1697C162.632 15.2829 165.956 18.0266 168.436 21.4008C170.951 24.7751 172.673 28.3367 173.603 32.0859C174.154 34.3695 174.43 36.5678 174.43 38.681H158.361C158.361 37.6585 158.275 36.6701 158.103 35.7157C157.586 32.0007 156.07 28.9162 153.556 26.4622C151.041 23.9741 147.683 22.7301 143.481 22.7301C138.521 22.7301 134.422 24.8603 131.184 29.1207C127.946 33.347 126.327 39.908 126.327 48.8037C126.327 57.7335 127.946 64.3456 131.184 68.6401C134.422 72.9005 138.521 75.0307 143.481 75.0307C146.65 75.0307 149.336 74.2808 151.541 72.7812C153.745 71.2815 155.433 69.3217 156.604 66.9018C157.775 64.4479 158.361 61.8064 158.361 58.9775H174.43Z" fill="#00AAAA"/>
<path d="M203.475 87.6585C197.447 87.6585 192.504 86.2611 188.646 83.4663C184.788 80.6714 182.859 76.7178 182.859 71.6053C182.859 67.7539 183.927 64.6183 186.063 62.1984C188.198 59.7785 191.023 57.938 194.536 56.6769C198.084 55.3817 201.925 54.5297 206.058 54.1207C212.052 53.5753 216.202 53.0641 218.51 52.5869C220.818 52.0757 221.972 51.2236 221.972 50.0307V49.9284C221.972 47.9175 220.99 46.3326 219.027 45.1738C217.098 44.015 214.394 43.4356 210.915 43.4356C203.337 43.4356 199.548 46.0941 199.548 51.411H183.789C183.789 47.0825 184.978 43.4185 187.355 40.4192C189.766 37.3858 193.021 35.1023 197.12 33.5685C201.219 32.0007 205.852 31.2168 211.018 31.2168C215.841 31.2168 220.301 31.9496 224.4 33.4151C228.499 34.8466 231.789 37.028 234.269 39.9591C236.783 42.8562 238.041 46.5201 238.041 50.9509V74.4172C238.041 75.8146 238.075 77.1609 238.144 78.456C238.247 79.7512 238.454 80.91 238.764 81.9325C239.108 83.1254 239.539 84.1138 240.056 84.8978C240.572 85.6817 241.003 86.227 241.347 86.5337H225.589C225.347 86.2611 224.969 85.7669 224.452 85.0511C223.97 84.3013 223.556 83.4322 223.212 82.4438C223.005 81.8643 222.833 81.302 222.695 80.7566C220.629 82.938 217.907 84.6421 214.532 85.8691C211.156 87.062 207.47 87.6585 203.475 87.6585ZM207.763 75.7975C210.243 75.7975 212.586 75.3545 214.79 74.4683C216.995 73.5481 218.786 72.1166 220.164 70.1738C221.541 68.2311 222.23 65.6919 222.23 62.5562V62.0961C220.267 62.6074 218.183 63.0334 215.978 63.3742C213.774 63.681 211.587 63.9536 209.417 64.1922C205.903 64.5331 203.268 65.1295 201.511 65.9816C199.789 66.7996 198.928 68.197 198.928 70.1738C198.928 73.923 201.873 75.7975 207.763 75.7975Z" fill="#00AAAA"/>
<path d="M275.521 87.6585C273.42 87.6585 271.25 87.471 269.011 87.0961C266.807 86.7553 264.757 86.0566 262.863 85C260.968 83.9093 259.418 82.3245 258.213 80.2454C257.042 78.1663 256.456 75.4226 256.456 72.0143V44.5092H243.797V32.2393H247.362C250.153 32.2393 252.185 32.0518 253.459 31.6769C254.768 31.302 255.595 30.3476 255.939 28.8139C256.284 27.2461 256.456 24.7069 256.456 21.1963V14.3456H272.525V32.2393H288.49V44.5092H272.525V67.5153C272.525 69.8671 272.8 71.7757 273.351 73.2413C273.937 74.7069 275.366 75.4397 277.64 75.4397C278.776 75.4397 279.844 75.3374 280.843 75.1329C281.876 74.9284 282.652 74.7239 283.168 74.5194V86.4315C282.445 86.7382 281.429 87.0109 280.12 87.2495C278.811 87.5222 277.278 87.6585 275.521 87.6585Z" fill="#00AAAA"/>
<path d="M315.489 87.6585C309.461 87.6585 304.518 86.2611 300.66 83.4663C296.802 80.6714 294.873 76.7178 294.873 71.6053C294.873 67.7539 295.941 64.6183 298.077 62.1984C300.212 59.7785 303.037 57.938 306.55 56.6769C310.098 55.3817 313.939 54.5297 318.072 54.1207C324.066 53.5753 328.216 53.0641 330.524 52.5869C332.832 52.0757 333.986 51.2236 333.986 50.0307V49.9284C333.986 47.9175 333.004 46.3326 331.041 45.1738C329.112 44.015 326.408 43.4356 322.929 43.4356C315.351 43.4356 311.562 46.0941 311.562 51.411H295.803C295.803 47.0825 296.992 43.4185 299.368 40.4192C301.78 37.3858 305.035 35.1023 309.134 33.5685C313.233 32.0007 317.865 31.2168 323.032 31.2168C327.855 31.2168 332.315 31.9496 336.414 33.4151C340.513 34.8466 343.803 37.028 346.283 39.9591C348.797 42.8562 350.054 46.5201 350.054 50.9509V74.4172C350.054 75.8146 350.089 77.1609 350.158 78.456C350.261 79.7512 350.468 80.91 350.778 81.9325C351.122 83.1254 351.553 84.1138 352.069 84.8978C352.586 85.6817 353.017 86.227 353.361 86.5337H337.602C337.361 86.2611 336.982 85.7669 336.466 85.0511C335.984 84.3013 335.57 83.4322 335.226 82.4438C335.019 81.8643 334.847 81.302 334.709 80.7566C332.642 82.938 329.921 84.6421 326.546 85.8691C323.17 87.062 319.484 87.6585 315.489 87.6585ZM319.777 75.7975C322.257 75.7975 324.599 75.3545 326.804 74.4683C329.008 73.5481 330.8 72.1166 332.177 70.1738C333.555 68.2311 334.244 65.6919 334.244 62.5562V62.0961C332.281 62.6074 330.197 63.0334 327.992 63.3742C325.788 63.681 323.601 63.9536 321.43 64.1922C317.917 64.5331 315.282 65.1295 313.525 65.9816C311.803 66.7996 310.942 68.197 310.942 70.1738C310.942 73.923 313.887 75.7975 319.777 75.7975Z" fill="#00AAAA"/>
<path d="M361.776 86.5337V32.2393H377.793V39.4479C379.584 36.8916 381.874 34.8807 384.664 33.4151C387.454 31.9496 390.641 31.2168 394.223 31.2168C398.804 31.2168 402.369 32.2052 404.918 34.182C407.502 36.1247 409.344 38.6639 410.447 41.7996C412.1 38.5617 414.442 35.9884 417.473 34.0798C420.505 32.1711 424.104 31.2168 428.272 31.2168C432.75 31.2168 436.28 32.1541 438.864 34.0286C441.482 35.8691 443.342 38.3572 444.444 41.4928C445.581 44.6285 446.149 48.122 446.149 51.9734V86.5337H430.132V56.4724C430.132 54.4956 429.96 52.621 429.615 50.8487C429.271 49.0423 428.513 47.5767 427.342 46.4519C426.171 45.3272 424.328 44.7648 421.814 44.7648C419.437 44.7648 417.525 45.3954 416.078 46.6564C414.632 47.9175 413.581 49.5706 412.927 51.6155C412.272 53.6605 411.945 55.8419 411.945 58.1595V86.5337H396.031V56.5746C396.031 54.7342 395.876 52.9107 395.566 51.1043C395.256 49.2979 394.516 47.7982 393.345 46.6053C392.173 45.3783 390.331 44.7648 387.816 44.7648C385.439 44.7648 383.511 45.4124 382.029 46.7076C380.583 47.9686 379.515 49.6387 378.826 51.7178C378.137 53.7969 377.793 56.0464 377.793 58.4663V86.5337H361.776Z" fill="#00AAAA"/>
<path d="M460.979 110C459.257 110 457.707 109.932 456.329 109.796C454.986 109.659 454.142 109.54 453.797 109.438V97.4233C454.245 97.6278 455.02 97.7812 456.122 97.8834C457.259 98.0198 458.465 98.0879 459.739 98.0879C462.288 98.0879 464.441 97.3551 466.198 95.8896C467.989 94.424 469.298 92.4642 470.124 90.0102L471.054 87.2495L452.144 32.2393H468.833L479.786 73.2413L490.378 32.2393H506.86L488.001 89.2433C486.589 93.5378 484.85 97.2358 482.783 100.337C480.716 103.473 477.961 105.859 474.516 107.495C471.072 109.165 466.559 110 460.979 110Z" fill="#00AAAA"/>
<path d="M535.075 87.7607C530.735 87.7607 526.618 87.1132 522.726 85.818C518.868 84.4888 515.734 82.529 513.323 79.9386C510.911 77.3142 509.706 74.0423 509.706 70.1227V69.2025H525.619V69.9182C525.619 71.895 526.498 73.3436 528.255 74.2638C530.011 75.1841 532.422 75.6442 535.488 75.6442C537.83 75.6442 540.017 75.2693 542.05 74.5194C544.082 73.7696 545.098 72.5256 545.098 70.7873C545.098 68.9809 544.082 67.7028 542.05 66.953C540.052 66.2031 536.831 65.4533 532.388 64.7035C529.839 64.2945 527.273 63.7151 524.689 62.9652C522.141 62.2154 519.781 61.227 517.611 60C515.441 58.7389 513.701 57.1541 512.393 55.2454C511.084 53.3027 510.429 50.9509 510.429 48.1902C510.429 44.5092 511.549 41.4076 513.788 38.8855C516.061 36.3633 519.075 34.4547 522.829 33.1595C526.584 31.8644 530.717 31.2168 535.23 31.2168C539.501 31.2168 543.496 31.9325 547.217 33.364C550.971 34.7614 554.002 36.7894 556.31 39.4479C558.618 42.0723 559.772 45.242 559.772 48.9571V49.6728H544.013V49.0593C544.013 47.0143 543.066 45.5317 541.171 44.6115C539.311 43.6571 537.314 43.18 535.178 43.18C533.869 43.18 532.508 43.3333 531.096 43.6401C529.718 43.9128 528.547 44.3899 527.583 45.0716C526.618 45.7192 526.136 46.6394 526.136 47.8323C526.136 49.5706 527.273 50.8487 529.546 51.6667C531.854 52.4847 534.834 53.1834 538.485 53.7628C540.793 54.1377 543.221 54.666 545.77 55.3476C548.353 55.9952 550.764 56.9325 553.003 58.1595C555.242 59.3524 557.068 60.9373 558.48 62.9141C559.892 64.8909 560.598 67.362 560.598 70.3272C560.598 73.4288 559.875 76.0873 558.428 78.3027C556.982 80.5181 555.018 82.3245 552.538 83.7219C550.093 85.0852 547.354 86.0907 544.323 86.7382C541.292 87.4199 538.209 87.7607 535.075 87.7607Z" fill="#00AAAA"/>
<path d="M597.031 87.6585C594.93 87.6585 592.76 87.471 590.521 87.0961C588.317 86.7553 586.267 86.0566 584.373 85C582.478 83.9093 580.928 82.3245 579.723 80.2454C578.552 78.1663 577.966 75.4226 577.966 72.0143V44.5092H565.307V32.2393H568.873C571.663 32.2393 573.695 32.0518 574.969 31.6769C576.278 31.302 577.105 30.3476 577.449 28.8139C577.794 27.2461 577.966 24.7069 577.966 21.1963V14.3456H594.035V32.2393H610V44.5092H594.035V67.5153C594.035 69.8671 594.31 71.7757 594.861 73.2413C595.447 74.7069 596.876 75.4397 599.15 75.4397C600.286 75.4397 601.354 75.3374 602.353 75.1329C603.387 74.9284 604.162 74.7239 604.678 74.5194V86.4315C603.955 86.7382 602.939 87.0109 601.63 87.2495C600.321 87.5222 598.788 87.6585 597.031 87.6585Z" fill="#00AAAA"/>
<circle cx="50" cy="50" r="50" fill="#00AAAA"/>
<path d="M14 21.4C14 21.4 26.0843 21.731 32.8882 23.6079C39.0949 25.32 47.2758 30.3163 47.2758 30.3163L22.9162 54.6758C22.9162 54.6758 17.92 46.4949 16.2079 40.2882C14.331 33.4843 14 21.4 14 21.4Z" fill="white"/>
<path fill-rule="evenodd" clip-rule="evenodd" d="M22.9162 54.6758C22.9162 54.6758 22.6788 54.2871 22.2897 53.6147C20.894 51.2028 17.5468 45.1419 16.2079 40.2882C14.6885 34.7803 14.1822 25.8118 14.0444 22.5952C14.012 21.8384 14 21.4 14 21.4C14 21.4 14.0181 21.4005 14.0533 21.4016L14.0572 21.4017C14.1988 21.406 14.5978 21.4189 15.1952 21.4444C18.4118 21.5822 27.3803 22.0885 32.8882 23.6079C37.7418 24.9468 43.8028 28.294 46.2147 29.6897C46.8871 30.0788 47.2758 30.3163 47.2758 30.3163L22.9162 54.6758ZM29.3733 46.5311C27.8429 44.2928 24.1068 38.7617 21.7777 34.7478C18.863 29.7245 15.5613 23.3068 15.2429 22.6864C15.2422 22.6711 15.2415 22.656 15.2409 22.6409C15.4507 22.65 15.6833 22.6607 15.9364 22.673C17.1659 22.7329 18.8755 22.8322 20.7951 22.9895C24.659 23.3063 29.2849 23.8519 32.5708 24.7583C35.5495 25.58 39.0562 27.2093 41.8601 28.6635C43.2527 29.3857 44.4543 30.0554 45.3072 30.5442L45.3409 30.5635L29.3733 46.5311Z" fill="black"/>
<path d="M86 21.4C86 21.4 73.9157 21.731 67.1119 23.6079C60.9051 25.32 52.7242 30.3163 52.7242 30.3163L77.0838 54.6758C77.0838 54.6758 82.08 46.4949 83.7921 40.2882C85.669 33.4843 86 21.4 86 21.4Z" fill="white"/>
<path fill-rule="evenodd" clip-rule="evenodd" d="M77.0838 54.6758C77.0838 54.6758 77.3212 54.2871 77.7103 53.6147C79.106 51.2028 82.4532 45.1419 83.7921 40.2882C85.3115 34.7803 85.8178 25.8118 85.9556 22.5952C85.988 21.8384 86 21.4 86 21.4C86 21.4 85.9819 21.4005 85.9467 21.4016L85.9428 21.4017C85.8012 21.406 85.4022 21.4189 84.8048 21.4444C81.5882 21.5822 72.6198 22.0885 67.1119 23.6079C62.2582 24.9468 56.1972 28.294 53.7853 29.6897C53.113 30.0788 52.7242 30.3163 52.7242 30.3163L77.0838 54.6758ZM70.6267 46.5311C72.1571 44.2928 75.8933 38.7617 78.2223 34.7478C81.1371 29.7245 84.4387 23.3068 84.7571 22.6864C84.7578 22.6711 84.7585 22.656 84.7591 22.6409C84.5493 22.65 84.3167 22.6607 84.0636 22.673C82.8341 22.7329 81.1245 22.8322 79.2049 22.9895C75.341 23.3063 70.7151 23.8519 67.4292 24.7583C64.4505 25.58 60.9438 27.2093 58.1399 28.6635C56.7473 29.3857 55.5457 30.0554 54.6928 30.5442L54.6591 30.5635L70.6267 46.5311Z" fill="black"/>
<path fill-rule="evenodd" clip-rule="evenodd" d="M72.9526 57.5991C72.9526 57.1597 73.3088 56.8035 73.7482 56.8035H84.0908C84.5302 56.8035 84.8864 57.1597 84.8864 57.5991C84.8864 58.0384 84.5302 58.3946 84.0908 58.3946H73.7482C73.3088 58.3946 72.9526 58.0384 72.9526 57.5991Z" fill="black"/>
<path fill-rule="evenodd" clip-rule="evenodd" d="M72.9527 64.6002C72.9527 64.1608 73.3089 63.8046 73.7482 63.8046H84.0909C84.5302 63.8046 84.8864 64.1608 84.8864 64.6002C84.8864 65.0396 84.5302 65.3958 84.0909 65.3958H73.7482C73.3089 65.3958 72.9527 65.0396 72.9527 64.6002Z" fill="black"/>
<path d="M79.2377 52.6664C79.2377 69.1434 66.4147 82.5007 50.5967 82.5007C34.7788 82.5007 21.9558 69.1434 21.9558 52.6664C21.9558 36.1894 34.7788 22.8321 50.5967 22.8321C66.4147 22.8321 79.2377 36.1894 79.2377 52.6664Z" fill="white"/>
<path fill-rule="evenodd" clip-rule="evenodd" d="M50.5967 81.3073C65.7102 81.3073 78.0443 68.5307 78.0443 52.6664C78.0443 36.8021 65.7102 24.0255 50.5967 24.0255C35.4833 24.0255 23.1492 36.8021 23.1492 52.6664C23.1492 68.5307 35.4833 81.3073 50.5967 81.3073ZM50.5967 82.5007C66.4147 82.5007 79.2377 69.1434 79.2377 52.6664C79.2377 36.1894 66.4147 22.8321 50.5967 22.8321C34.7788 22.8321 21.9558 36.1894 21.9558 52.6664C21.9558 69.1434 34.7788 82.5007 50.5967 82.5007Z" fill="black"/>
<ellipse cx="42.4818" cy="52.905" rx="1.98895" ry="2.38674" fill="black"/>
<ellipse cx="65.315" cy="52.905" rx="1.98894" ry="2.38674" fill="black"/>
<path fill-rule="evenodd" clip-rule="evenodd" d="M58.3927 57.6851C58.3934 57.6817 58.3935 57.6799 58.3935 57.6786C58.3935 57.6773 58.3934 57.6755 58.3927 57.6721C58.392 57.6686 58.3901 57.6612 58.3854 57.6496C58.3757 57.626 58.3527 57.5819 58.3006 57.5203C58.1917 57.3916 57.9875 57.2245 57.655 57.0583C56.9894 56.7255 55.9864 56.4852 54.8133 56.4852C53.6403 56.4852 52.6373 56.7255 51.9717 57.0583C51.6392 57.2245 51.4349 57.3916 51.3261 57.5203C51.274 57.5819 51.2509 57.626 51.2413 57.6496C51.2365 57.6612 51.2347 57.6686 51.234 57.6721C51.2333 57.6755 51.2332 57.6773 51.2332 57.6786C51.2332 57.6799 51.2333 57.6817 51.234 57.6851C51.2347 57.6886 51.2365 57.696 51.2413 57.7076C51.2509 57.7312 51.274 57.7753 51.3261 57.8369C51.4349 57.9656 51.6392 58.1327 51.9717 58.2989C52.6373 58.6317 53.6403 58.872 54.8133 58.872C55.9864 58.872 56.9894 58.6317 57.655 58.2989C57.9875 58.1327 58.1917 57.9656 58.3006 57.8369C58.3527 57.7753 58.3757 57.7312 58.3854 57.7076C58.3901 57.696 58.392 57.6886 58.3927 57.6851ZM54.8133 60.0653C57.4497 60.0653 59.5868 58.9968 59.5868 57.6786C59.5868 56.3604 57.4497 55.2919 54.8133 55.2919C52.177 55.2919 50.0398 56.3604 50.0398 57.6786C50.0398 58.9968 52.177 60.0653 54.8133 60.0653Z" fill="black"/>
<path fill-rule="evenodd" clip-rule="evenodd" d="M49.3376 61.8746C49.1512 61.6044 48.7814 61.5354 48.51 61.7207C48.2378 61.9065 48.1679 62.2778 48.3537 62.5499L48.8465 62.2134C48.3537 62.5499 48.3538 62.5501 48.354 62.5504L48.3543 62.5508L48.3551 62.5519L48.3569 62.5546C48.3582 62.5565 48.3599 62.5588 48.3618 62.5615C48.3655 62.5669 48.3705 62.5738 48.3765 62.5821C48.3885 62.5987 48.4051 62.6209 48.426 62.6479C48.468 62.7019 48.528 62.7754 48.606 62.8618C48.7615 63.0342 48.9913 63.261 49.2951 63.4874C49.9036 63.9411 50.8212 64.4013 52.0288 64.4013C53.2364 64.4013 54.154 63.9411 54.7625 63.4874C55.0663 63.261 55.2961 63.0342 55.4516 62.8618C55.5296 62.7754 55.5896 62.7019 55.6316 62.6479C55.6525 62.6209 55.6691 62.5987 55.6811 62.5821C55.6871 62.5738 55.6921 62.5669 55.6959 62.5615C55.6978 62.5588 55.6994 62.5565 55.7007 62.5546L55.7025 62.5519L55.7033 62.5508L55.7036 62.5504C55.7038 62.5501 55.7039 62.5499 55.2111 62.2134L55.7039 62.5499C55.8897 62.2778 55.8198 61.9065 55.5476 61.7207C55.2763 61.5354 54.9064 61.6044 54.72 61.8746C54.7195 61.8753 54.7181 61.8773 54.7157 61.8805C54.7108 61.8873 54.702 61.8992 54.6892 61.9157C54.6635 61.9488 54.6222 61.9996 54.5656 62.0623C54.452 62.1883 54.2791 62.3593 54.0493 62.5306C53.5906 62.8726 52.9171 63.2079 52.0288 63.2079C51.1405 63.2079 50.467 62.8726 50.0083 62.5306C49.7785 62.3593 49.6056 62.1883 49.492 62.0623C49.4354 61.9996 49.3941 61.9488 49.3684 61.9157C49.3556 61.8992 49.3468 61.8873 49.3419 61.8805C49.3395 61.8773 49.3381 61.8753 49.3376 61.8746ZM54.7202 61.8744C54.7202 61.8742 54.7202 61.8743 54.7201 61.8745L54.7202 61.8744Z" fill="black"/>
<path fill-rule="evenodd" clip-rule="evenodd" d="M54.6542 63.009V59.0311H55.8476V63.009H54.6542Z" fill="black"/>
<path fill-rule="evenodd" clip-rule="evenodd" d="M61.0846 61.8746C61.271 61.6044 61.6409 61.5354 61.9122 61.7207C62.1844 61.9065 62.2544 62.2778 62.0685 62.5499L61.5758 62.2134C62.0685 62.5499 62.0684 62.5501 62.0682 62.5504L62.0679 62.5508L62.0671 62.5519L62.0653 62.5546C62.064 62.5565 62.0624 62.5588 62.0605 62.5615C62.0567 62.5669 62.0518 62.5738 62.0457 62.5821C62.0337 62.5987 62.0172 62.6209 61.9962 62.6479C61.9542 62.7019 61.8943 62.7754 61.8163 62.8618C61.6607 63.0342 61.4309 63.261 61.1272 63.4874C60.5186 63.9411 59.601 64.4013 58.3934 64.4013C57.1859 64.4013 56.2683 63.9411 55.6597 63.4874C55.356 63.261 55.1262 63.0342 54.9706 62.8618C54.8926 62.7754 54.8326 62.7019 54.7907 62.6479C54.7697 62.6209 54.7532 62.5987 54.7411 62.5821C54.7351 62.5738 54.7302 62.5669 54.7264 62.5615C54.7245 62.5588 54.7229 62.5565 54.7215 62.5546L54.7197 62.5519L54.719 62.5508L54.7187 62.5504C54.7185 62.5501 54.7184 62.5499 55.2111 62.2134L54.7184 62.5499C54.5325 62.2778 54.6025 61.9065 54.8747 61.7207C55.146 61.5354 55.5159 61.6044 55.7023 61.8746C55.7028 61.8753 55.7042 61.8773 55.7065 61.8805C55.7114 61.8873 55.7203 61.8992 55.7331 61.9157C55.7588 61.9488 55.8 61.9996 55.8566 62.0623C55.9703 62.1883 56.1431 62.3593 56.373 62.5306C56.8316 62.8726 57.5051 63.2079 58.3934 63.2079C59.2818 63.2079 59.9553 62.8726 60.4139 62.5306C60.6438 62.3593 60.8166 62.1883 60.9303 62.0623C60.9869 61.9996 61.0281 61.9488 61.0538 61.9157C61.0666 61.8992 61.0755 61.8873 61.0804 61.8805C61.0827 61.8773 61.0841 61.8753 61.0846 61.8746ZM55.7021 61.8744C55.7021 61.8744 55.702 61.8743 55.7022 61.8745L55.7021 61.8744Z" fill="black"/>
<path fill-rule="evenodd" clip-rule="evenodd" d="M16.5459 57.5991C16.5459 57.1597 16.9021 56.8035 17.3414 56.8035H27.684C28.1234 56.8035 28.4796 57.1597 28.4796 57.5991C28.4796 58.0384 28.1234 58.3946 27.684 58.3946H17.3414C16.9021 58.3946 16.5459 58.0384 16.5459 57.5991Z" fill="black"/>
<path fill-rule="evenodd" clip-rule="evenodd" d="M16.5458 64.6002C16.5458 64.1608 16.902 63.8046 17.3414 63.8046H27.684C28.1234 63.8046 28.4796 64.1608 28.4796 64.6002C28.4796 65.0396 28.1234 65.3958 27.684 65.3958H17.3414C16.902 65.3958 16.5458 65.0396 16.5458 64.6002Z" fill="black"/>
</svg>
