<svg width="1000" height="1000" viewBox="0 0 1000 1000" fill="none" xmlns="http://www.w3.org/2000/svg">
<rect width="1000" height="1000" fill="#00AAAA"/>
<path d="M140 214C140 214 260.843 217.31 328.882 236.079C390.949 253.2 472.759 303.162 472.759 303.162L229.162 546.759C229.162 546.759 179.2 464.949 162.079 402.882C143.31 334.843 140 214 140 214Z" fill="white"/>
<path fill-rule="evenodd" clip-rule="evenodd" d="M229.162 546.759C229.162 546.759 226.788 542.871 222.897 536.147C208.94 512.028 175.468 451.418 162.079 402.882C146.885 347.803 141.822 258.118 140.444 225.952C140.12 218.384 140 214 140 214C140 214 140.181 214.005 140.533 214.016L140.572 214.017C141.988 214.06 145.978 214.188 151.952 214.444C184.118 215.822 273.803 220.885 328.882 236.079C377.418 249.468 438.028 282.94 462.147 296.897C468.871 300.788 472.759 303.162 472.759 303.162L229.162 546.759ZM293.733 465.311C278.429 442.928 241.068 387.616 217.777 347.478C188.63 297.245 155.613 233.068 152.429 226.864C152.422 226.711 152.415 226.559 152.409 226.409C154.507 226.5 156.833 226.607 159.364 226.73C171.659 227.329 188.755 228.321 207.951 229.895C246.59 233.062 292.849 238.519 325.708 247.583C355.495 255.8 390.562 272.093 418.601 286.635C432.527 293.857 444.543 300.554 453.072 305.442L453.409 305.635L293.733 465.311Z" fill="black"/>
<path d="M860 214C860 214 739.157 217.31 671.118 236.079C609.051 253.2 527.241 303.162 527.241 303.162L770.838 546.759C770.838 546.759 820.8 464.949 837.921 402.882C856.69 334.843 860 214 860 214Z" fill="white"/>
<path fill-rule="evenodd" clip-rule="evenodd" d="M770.838 546.759C770.838 546.759 773.212 542.871 777.103 536.147C791.06 512.028 824.532 451.418 837.921 402.882C853.115 347.803 858.178 258.118 859.556 225.952C859.88 218.384 860 214 860 214C860 214 859.819 214.005 859.467 214.016L859.428 214.017C858.012 214.06 854.022 214.188 848.048 214.444C815.882 215.822 726.197 220.885 671.118 236.079C622.582 249.468 561.972 282.94 537.853 296.897C531.129 300.788 527.241 303.162 527.241 303.162L770.838 546.759ZM706.267 465.311C721.571 442.928 758.932 387.616 782.223 347.478C811.37 297.245 844.387 233.068 847.571 226.864C847.578 226.711 847.585 226.559 847.591 226.409C845.493 226.5 843.167 226.607 840.636 226.73C828.341 227.329 811.245 228.321 792.048 229.895C753.41 233.062 707.151 238.519 674.292 247.583C644.505 255.8 609.438 272.093 581.399 286.635C567.473 293.857 555.457 300.554 546.928 305.442L546.591 305.635L706.267 465.311Z" fill="black"/>
<path fill-rule="evenodd" clip-rule="evenodd" d="M729.526 575.99C729.526 571.596 733.088 568.034 737.482 568.034H840.907C845.301 568.034 848.863 571.596 848.863 575.99C848.863 580.384 845.301 583.946 840.907 583.946H737.482C733.088 583.946 729.526 580.384 729.526 575.99Z" fill="black"/>
<path fill-rule="evenodd" clip-rule="evenodd" d="M729.526 646.001C729.526 641.607 733.088 638.045 737.482 638.045H840.907C845.301 638.045 848.863 641.607 848.863 646.001C848.863 650.395 845.301 653.957 840.907 653.957H737.482C733.088 653.957 729.526 650.395 729.526 646.001Z" fill="black"/>
<path d="M792.377 526.664C792.377 691.434 664.147 825.007 505.968 825.007C347.788 825.007 219.558 691.434 219.558 526.664C219.558 361.893 347.788 228.32 505.968 228.32C664.147 228.32 792.377 361.893 792.377 526.664Z" fill="white"/>
<path fill-rule="evenodd" clip-rule="evenodd" d="M505.968 813.073C657.102 813.073 780.443 685.307 780.443 526.664C780.443 368.02 657.102 240.254 505.968 240.254C354.833 240.254 231.492 368.02 231.492 526.664C231.492 685.307 354.833 813.073 505.968 813.073ZM505.968 825.007C664.147 825.007 792.377 691.434 792.377 526.664C792.377 361.893 664.147 228.32 505.968 228.32C347.788 228.32 219.558 361.893 219.558 526.664C219.558 691.434 347.788 825.007 505.968 825.007Z" fill="black"/>
<ellipse cx="424.818" cy="529.05" rx="19.8895" ry="23.8675" fill="black"/>
<ellipse cx="653.15" cy="529.05" rx="19.8895" ry="23.8675" fill="black"/>
<path fill-rule="evenodd" clip-rule="evenodd" d="M583.927 576.85C583.934 576.816 583.935 576.798 583.935 576.785C583.935 576.773 583.934 576.754 583.927 576.72C583.92 576.685 583.902 576.611 583.854 576.495C583.758 576.26 583.527 575.818 583.006 575.202C581.918 573.916 579.875 572.245 576.55 570.582C569.894 567.254 559.864 564.852 548.133 564.852C536.403 564.852 526.373 567.254 519.717 570.582C516.392 572.245 514.349 573.916 513.261 575.202C512.74 575.818 512.509 576.26 512.413 576.495C512.365 576.611 512.347 576.685 512.34 576.72C512.333 576.754 512.332 576.773 512.332 576.785C512.332 576.798 512.333 576.816 512.34 576.85C512.347 576.885 512.365 576.959 512.413 577.075C512.509 577.311 512.74 577.753 513.261 578.368C514.349 579.655 516.392 581.326 519.717 582.988C526.373 586.316 536.403 588.719 548.133 588.719C559.864 588.719 569.894 586.316 576.55 582.988C579.875 581.326 581.918 579.655 583.006 578.368C583.527 577.753 583.758 577.311 583.854 577.075C583.902 576.959 583.92 576.885 583.927 576.85ZM548.133 600.653C574.497 600.653 595.868 589.967 595.868 576.785C595.868 563.604 574.497 552.918 548.133 552.918C521.77 552.918 500.399 563.604 500.399 576.785C500.399 589.967 521.77 600.653 548.133 600.653Z" fill="black"/>
<path fill-rule="evenodd" clip-rule="evenodd" d="M493.376 618.745C491.513 616.043 487.814 615.353 485.1 617.206C482.379 619.064 481.679 622.777 483.537 625.498L488.465 622.133C483.537 625.498 483.539 625.5 483.54 625.503L483.543 625.508L483.551 625.518L483.569 625.545C483.582 625.564 483.599 625.587 483.618 625.614C483.656 625.668 483.705 625.737 483.765 625.82C483.885 625.986 484.051 626.208 484.261 626.478C484.68 627.018 485.28 627.753 486.06 628.617C487.616 630.341 489.913 632.609 492.951 634.873C499.036 639.41 508.213 644.012 520.288 644.012C532.363 644.012 541.54 639.41 547.625 634.873C550.663 632.609 552.961 630.341 554.516 628.617C555.296 627.753 555.896 627.018 556.315 626.478C556.525 626.208 556.691 625.986 556.811 625.82C556.871 625.737 556.92 625.668 556.958 625.614C556.977 625.587 556.994 625.564 557.007 625.545L557.025 625.518L557.033 625.508L557.036 625.503C557.037 625.5 557.039 625.498 552.111 622.133L557.039 625.498C558.897 622.777 558.197 619.064 555.476 617.206C552.762 615.353 549.063 616.043 547.2 618.745C547.195 618.752 547.18 618.772 547.157 618.804C547.108 618.872 547.02 618.991 546.892 619.156C546.635 619.487 546.222 619.995 545.656 620.622C544.52 621.882 542.791 623.592 540.493 625.305C535.906 628.725 529.171 632.078 520.288 632.078C511.405 632.078 504.67 628.725 500.083 625.305C497.785 623.592 496.056 621.882 494.92 620.622C494.354 619.995 493.941 619.487 493.684 619.156C493.556 618.991 493.468 618.872 493.419 618.804C493.396 618.772 493.381 618.752 493.376 618.745ZM547.202 618.743C547.202 618.741 547.202 618.742 547.201 618.744L547.202 618.743Z" fill="black"/>
<path fill-rule="evenodd" clip-rule="evenodd" d="M546.542 630.089V590.31H558.476V630.089H546.542Z" fill="black"/>
<path fill-rule="evenodd" clip-rule="evenodd" d="M610.846 618.745C612.71 616.043 616.409 615.353 619.123 617.206C621.844 619.064 622.544 622.777 620.686 625.498L615.758 622.133C620.686 625.498 620.684 625.5 620.683 625.503L620.679 625.508L620.672 625.518L620.654 625.545C620.64 625.564 620.624 625.587 620.605 625.614C620.567 625.668 620.518 625.737 620.458 625.82C620.337 625.986 620.172 626.208 619.962 626.478C619.543 627.018 618.943 627.753 618.163 628.617C616.607 630.341 614.309 632.609 611.272 634.873C605.187 639.41 596.01 644.012 583.935 644.012C571.859 644.012 562.683 639.41 556.597 634.873C553.56 632.609 551.262 630.341 549.706 628.617C548.927 627.753 548.327 627.018 547.907 626.478C547.697 626.208 547.532 625.986 547.412 625.82C547.351 625.737 547.302 625.668 547.264 625.614C547.245 625.587 547.229 625.564 547.216 625.545L547.198 625.518L547.19 625.508L547.187 625.503C547.185 625.5 547.184 625.498 552.111 622.133L547.184 625.498C545.325 622.777 546.025 619.064 548.747 617.206C551.46 615.353 555.159 616.043 557.023 618.745C557.028 618.752 557.042 618.772 557.065 618.804C557.114 618.872 557.203 618.991 557.331 619.156C557.588 619.487 558 619.995 558.566 620.622C559.703 621.882 561.431 623.592 563.73 625.305C568.316 628.725 575.052 632.078 583.935 632.078C592.818 632.078 599.553 628.725 604.139 625.305C606.438 623.592 608.166 621.882 609.303 620.622C609.869 619.995 610.281 619.487 610.538 619.156C610.666 618.991 610.755 618.872 610.804 618.804C610.827 618.772 610.841 618.752 610.846 618.745ZM557.021 618.743C557.021 618.743 557.021 618.742 557.022 618.744L557.021 618.743Z" fill="black"/>
<path fill-rule="evenodd" clip-rule="evenodd" d="M165.458 575.99C165.458 571.596 169.02 568.034 173.414 568.034H276.84C281.234 568.034 284.796 571.596 284.796 575.99C284.796 580.384 281.234 583.946 276.84 583.946H173.414C169.02 583.946 165.458 580.384 165.458 575.99Z" fill="black"/>
<path fill-rule="evenodd" clip-rule="evenodd" d="M165.458 646.001C165.458 641.607 169.02 638.045 173.414 638.045H276.84C281.234 638.045 284.796 641.607 284.796 646.001C284.796 650.395 281.234 653.957 276.84 653.957H173.414C169.02 653.957 165.458 650.395 165.458 646.001Z" fill="black"/>
</svg>
